<svg width="468" height="515" viewBox="0 0 468 515" fill="none" xmlns="http://www.w3.org/2000/svg">
<g clip-path="url(#clip0_1040_3730)">
<path d="M348.45 125.33C346.821 125.416 345.214 124.919 343.918 123.928C342.622 122.936 341.723 121.515 341.38 119.92C334.24 84.39 260.84 78.01 260.84 78.01C260.84 78.01 262.84 10.42 248.5 19.83C130.37 97.4 45.75 270.18 42.22 386.55C63.38 416.55 105.69 471.17 181.5 497.62C182.607 496.953 183.697 496.253 184.77 495.52C180.312 494.131 175.93 492.513 171.64 490.67C156.14 480.33 100.2 321.77 221.17 242.17C222.047 241.58 223.064 241.231 224.119 241.16C225.174 241.09 226.229 241.299 227.177 241.767C228.125 242.234 228.932 242.945 229.518 243.825C230.103 244.705 230.445 245.725 230.51 246.78C232.9 283.18 233.69 299.01 271.69 301.63C273.89 293.94 276.27 287.63 278.79 283.94C280.18 281.94 282.63 281.32 285.04 280.78C460.04 241.97 442.44 183.78 444.2 145.01C445.31 120.62 389.96 123.47 348.45 125.33Z" fill="black"/>
<path d="M230.51 246.78C230.445 245.725 230.103 244.705 229.518 243.825C228.932 242.945 228.125 242.234 227.177 241.767C226.229 241.299 225.174 241.089 224.119 241.16C223.064 241.231 222.047 241.579 221.17 242.17C100.17 321.77 156.17 480.33 171.64 490.67C175.93 492.513 180.313 494.131 184.77 495.52C252.19 451.35 257.32 383.02 257.32 383.02C257.32 383.02 263.09 331.7 271.69 301.63C233.69 299.01 232.9 283.18 230.51 246.78Z" fill="black"/>
<path d="M279.08 108.73L309.25 118.03C309.882 118.222 310.455 118.571 310.916 119.044C311.377 119.518 311.71 120.1 311.885 120.737C312.06 121.374 312.07 122.045 311.916 122.688C311.761 123.33 311.446 123.922 311 124.41C308.08 127.53 302.57 130.88 292.49 130.26C292.299 130.247 292.109 130.224 291.92 130.19C276.6 127.43 274.01 118.32 274 112.48C273.999 111.865 274.143 111.259 274.419 110.711C274.696 110.162 275.097 109.686 275.592 109.321C276.086 108.956 276.66 108.712 277.266 108.609C277.871 108.507 278.493 108.548 279.08 108.73Z" fill="#EDE4E4"/>
<path d="M369.39 483.28C327.07 509.72 224.82 513.28 171.93 490.28C156.42 479.94 100.48 321.37 221.45 241.78C222.326 241.19 223.343 240.841 224.397 240.77C225.451 240.699 226.505 240.907 227.453 241.374C228.4 241.841 229.208 242.549 229.794 243.428C230.38 244.307 230.724 245.326 230.79 246.38C233.43 286.49 234.11 301.63 284.79 301.63C334.68 301.63 341.97 300.16 354.93 273.08C356.53 269.75 361.02 269.92 362.84 273.13C372.96 291.1 379.96 314.02 379.96 314.02C379.96 314.02 417.56 412.02 355.9 438.24C355.144 438.558 354.476 439.054 353.954 439.686C353.431 440.319 353.07 441.068 352.9 441.87C347.96 466.14 367.69 473.06 369.39 483.28Z" fill="white"/>
<path d="M239.66 351.472L208.095 351.084C207.434 351.073 206.781 351.23 206.197 351.54C205.614 351.849 205.118 352.302 204.756 352.855C204.395 353.409 204.18 354.044 204.131 354.703C204.082 355.362 204.2 356.023 204.476 356.624C206.293 360.491 210.511 365.345 220.293 367.879C220.483 367.924 220.675 367.958 220.869 367.982C236.295 370.045 241.554 362.174 243.35 356.612C243.544 356.026 243.597 355.402 243.503 354.792C243.41 354.182 243.174 353.603 242.814 353.102C242.454 352.6 241.981 352.192 241.432 351.908C240.884 351.625 240.277 351.476 239.66 351.472Z" fill="black"/>
<path d="M270.109 393.465C271.211 394.359 272.789 394.359 273.891 393.465L279.293 389.079C281.486 387.298 280.227 383.75 277.402 383.75H266.598C263.773 383.75 262.514 387.298 264.707 389.079L270.109 393.465Z" fill="black"/>
<path d="M308.074 351.699L339.631 350.8C340.292 350.779 340.947 350.925 341.536 351.226C342.124 351.527 342.627 351.973 342.997 352.521C343.366 353.069 343.591 353.701 343.65 354.36C343.709 355.018 343.6 355.681 343.333 356.286C341.586 360.173 337.441 365.125 327.702 367.777L327.131 367.893C311.735 370.205 306.359 362.417 304.478 356.894C304.28 356.312 304.221 355.692 304.306 355.084C304.39 354.475 304.617 353.895 304.967 353.39C305.316 352.885 305.78 352.469 306.319 352.175C306.859 351.881 307.46 351.718 308.074 351.699Z" fill="black"/>
<path d="M467.63 401.46C446.391 433.78 417.929 460.72 384.49 480.15C383.04 481.07 379.68 482.93 378.22 483.81L376.06 484.96L367.43 489.35C364.59 490.89 361.57 492.05 358.62 493.35C355.97 494.45 352.35 496.19 349.7 497.16C246.31 537.54 130.89 506.58 59.8101 421.73C-36.7999 305.16 -13.6199 134.61 109.4 46.96C143.95 22.371 184.122 6.85211 226.23 1.82711C268.338 -3.1979 311.034 2.4319 350.4 18.2C380.236 30.2175 407.476 47.8728 430.63 70.2C404.031 47.3967 373.119 30.1753 339.73 19.56C276.82 -0.279999 206.22 5.51001 147.96 36.65C72.7601 76.08 20.9601 152.94 14.7701 237.83C5.01005 356.23 84.86 466.4 199.29 496.83C300.13 523.4 405.55 484.83 467.61 401.45L467.63 401.46Z" fill="black"/>
</g>
<defs>
<clipPath id="clip0_1040_3730">
<rect width="467.64" height="514.69" fill="white"/>
</clipPath>
</defs>
</svg>
