<svg width="500" height="500" viewBox="0 0 500 500" fill="none" xmlns="http://www.w3.org/2000/svg">
<g clip-path="url(#clip0_1040_3730)">
<path d="M372.562 121.753C370.82 121.837 369.102 121.354 367.717 120.391C366.332 119.427 365.369 118.047 365.003 116.497C357.369 81.9814 278.89 75.7835 278.89 75.7835C278.89 75.7835 281.028 10.1226 265.696 19.264C139.391 94.6201 48.9159 262.469 45.1416 375.517C67.7658 404.661 113.004 457.722 194.06 483.417C195.243 482.77 196.408 482.09 197.556 481.377C192.79 480.028 188.104 478.456 183.517 476.666C166.945 466.621 107.134 312.586 236.475 235.258C237.412 234.684 238.5 234.346 239.628 234.277C240.756 234.208 241.884 234.412 242.897 234.866C243.911 235.321 244.774 236.011 245.4 236.866C246.026 237.721 246.392 238.711 246.461 239.737C249.016 275.098 249.861 290.476 290.491 293.021C292.843 285.551 295.387 279.421 298.082 275.836C299.568 273.893 302.188 273.291 304.764 272.766C491.874 235.064 473.056 178.535 474.938 140.871C476.125 117.177 416.945 119.946 372.562 121.753Z" fill="black"/>
<path d="M246.461 239.737C246.392 238.711 246.026 237.721 245.4 236.866C244.774 236.011 243.911 235.321 242.897 234.866C241.884 234.412 240.756 234.208 239.628 234.277C238.5 234.346 237.412 234.684 236.475 235.258C107.102 312.586 166.977 466.621 183.517 476.666C188.104 478.456 192.79 480.028 197.556 481.377C269.641 438.468 275.126 372.088 275.126 372.088C275.126 372.088 281.296 322.233 290.491 293.021C249.861 290.476 249.016 275.098 246.461 239.737Z" fill="black"/>
<path d="M298.392 105.627L330.65 114.661C331.326 114.848 331.939 115.187 332.431 115.646C332.924 116.106 333.28 116.672 333.467 117.291C333.654 117.91 333.665 118.562 333.5 119.186C333.334 119.81 332.997 120.385 332.521 120.859C329.399 123.89 323.507 127.144 312.73 126.542C312.526 126.53 312.322 126.507 312.12 126.474C295.74 123.793 292.971 114.943 292.96 109.27C292.96 108.673 293.113 108.084 293.409 107.551C293.704 107.018 294.134 106.555 294.662 106.2C295.191 105.846 295.804 105.609 296.452 105.51C297.1 105.41 297.764 105.45 298.392 105.627Z" fill="#EDE4E4"/>
<path d="M394.951 469.487C349.703 495.172 240.377 498.63 183.827 476.287C167.244 466.242 107.433 312.198 236.774 234.879C237.711 234.306 238.798 233.968 239.925 233.898C241.052 233.829 242.179 234.031 243.192 234.485C244.205 234.938 245.069 235.627 245.696 236.481C246.322 237.335 246.689 238.324 246.76 239.348C249.583 278.313 250.31 293.021 304.497 293.021C357.839 293.021 365.634 291.593 379.491 265.286C381.201 262.051 386.002 262.216 387.948 265.335C398.768 282.792 406.253 305.057 406.253 305.057C406.253 305.057 446.454 400.26 380.528 425.732C379.719 426.041 379.006 426.523 378.447 427.137C377.888 427.751 377.502 428.479 377.32 429.258C372.038 452.836 393.133 459.558 394.951 469.487Z" fill="white"/>
<path d="M256.244 341.441L222.494 341.064C221.788 341.053 221.09 341.205 220.466 341.506C219.842 341.807 219.312 342.247 218.925 342.784C218.539 343.322 218.309 343.939 218.256 344.58C218.204 345.22 218.331 345.862 218.625 346.445C220.568 350.202 225.078 354.917 235.537 357.379C235.74 357.423 235.946 357.456 236.153 357.479C252.647 359.483 258.269 351.837 260.189 346.433C260.397 345.864 260.453 345.259 260.353 344.666C260.254 344.073 260.001 343.511 259.616 343.024C259.232 342.537 258.725 342.139 258.139 341.864C257.553 341.589 256.903 341.444 256.244 341.441Z" fill="black"/>
<path d="M289.041 382.412C290.1 383.193 291.544 383.193 292.603 382.412L298.298 378.211C300.628 376.493 299.412 372.797 296.517 372.797H285.127C282.232 372.797 281.016 376.493 283.346 378.211L289.041 382.412Z" fill="black"/>
<path d="M329.392 341.661L363.133 340.787C363.84 340.767 364.54 340.91 365.169 341.202C365.799 341.494 366.336 341.927 366.731 342.459C367.127 342.992 367.367 343.606 367.43 344.246C367.493 344.886 367.376 345.529 367.091 346.117C365.223 349.894 360.791 354.703 350.379 357.28L349.768 357.392C333.306 359.639 327.559 352.073 325.547 346.708C325.335 346.143 325.272 345.54 325.363 344.949C325.454 344.358 325.696 343.794 326.07 343.304C326.444 342.813 326.939 342.409 327.516 342.123C328.093 341.838 328.736 341.68 329.392 341.661Z" fill="black"/>
<path d="M499.989 390.002C477.281 421.4 446.849 447.57 411.096 466.446C409.546 467.34 405.953 469.146 404.392 470.001L402.083 471.119L392.856 475.383C389.819 476.879 386.59 478.006 383.436 479.269C380.603 480.338 376.732 482.028 373.899 482.97C263.354 522.198 139.947 492.121 63.9487 409.693C-39.3466 296.45 -14.5625 130.768 116.97 45.6197C153.911 21.7325 196.863 6.65654 241.885 1.77496C286.907 -3.10662 332.557 2.3625 374.647 17.6805C406.548 29.355 435.673 46.5065 460.429 68.1964C431.99 46.0439 398.938 29.3141 363.239 19.0017C295.975 -0.272005 220.49 5.35274 158.199 35.604C77.7948 73.9086 22.4103 148.575 15.792 231.042C5.35663 346.063 90.7321 453.088 213.08 482.65C320.898 508.461 433.613 470.992 499.968 389.992L499.989 390.002Z" fill="black"/>
</g>
<defs>
<clipPath id="clip0_1040_3730">
<rect width="500" height="500" fill="white"/>
</clipPath>
</defs>
</svg>
